<svg width="28" height="35" viewBox="0 0 28 35" fill="none" xmlns="http://www.w3.org/2000/svg">
<path d="M14.4812 29.75C14.8312 29.7208 15.1305 29.582 15.379 29.3335C15.6275 29.085 15.7512 28.7863 15.75 28.4375C15.75 28.0292 15.6187 27.7008 15.3562 27.4523C15.0937 27.2038 14.7583 27.0947 14.35 27.125C13.1542 27.2125 11.8854 26.8841 10.5437 26.1398C9.20208 25.3954 8.35625 24.0467 8.00625 22.0938C7.94792 21.7729 7.79508 21.5104 7.54775 21.3062C7.30042 21.1021 7.01575 21 6.69375 21C6.28542 21 5.95 21.1534 5.6875 21.4602C5.425 21.7671 5.3375 22.1241 5.425 22.5312C5.92083 25.1854 7.0875 27.0812 8.925 28.2188C10.7625 29.3563 12.6146 29.8667 14.4812 29.75ZM14 35C10.0042 35 6.67158 33.6292 4.00225 30.8875C1.33292 28.1458 -0.0011659 24.7333 7.64526e-07 20.65C7.64526e-07 17.7333 1.15967 14.5612 3.479 11.1335C5.79833 7.70583 9.30533 3.99467 14 0C18.6958 3.99583 22.2034 7.70758 24.5228 11.1353C26.8421 14.5629 28.0012 17.7345 28 20.65C28 24.7333 26.6653 28.1458 23.996 30.8875C21.3267 33.6292 17.9947 35 14 35ZM14 31.5C17.0333 31.5 19.5417 30.4716 21.525 28.4147C23.5083 26.3579 24.5 23.7697 24.5 20.65C24.5 18.5208 23.6174 16.1146 21.8522 13.4313C20.0871 10.7479 17.4697 7.81667 14 4.6375C10.5292 7.81667 7.91175 10.7479 6.14775 13.4313C4.38375 16.1146 3.50117 18.5208 3.5 20.65C3.5 23.7708 4.49167 26.3597 6.475 28.4165C8.45833 30.4733 10.9667 31.5012 14 31.5Z" fill="#6EB5DD"/>
</svg>
