<svg width="35" height="63" viewBox="0 0 35 63" fill="none" xmlns="http://www.w3.org/2000/svg">
<path d="M5.82776 14.992H5.17088L17.2306 26.9716L27.1345 17.1336H30.1831L17.2306 30L2.66123 15.5442C2.26822 15.1538 1.92013 14.7355 1.61695 14.2893C1.31377 13.8432 1.0499 13.3635 0.825319 12.8504H4.91823L9.68487 8.1322L17.2306 15.6111L22.6205 10.2738L25.2312 12.8504H31.2105C31.5699 12.2816 31.845 11.6792 32.0359 11.0434C32.2268 10.4077 32.3222 9.75514 32.3222 9.08589C32.3222 8.11547 32.1425 7.21198 31.7832 6.37542C31.4239 5.53885 30.9242 4.81383 30.2842 4.20035C29.6441 3.58687 28.903 3.10166 28.0609 2.74473C27.2187 2.38779 26.3035 2.20933 25.3154 2.20933C24.3722 2.20933 23.5356 2.35433 22.8058 2.64434C22.0759 2.93435 21.4022 3.32475 20.7846 3.81553C20.167 4.30632 19.5775 4.84729 19.016 5.43847C18.4546 6.02964 17.8595 6.6487 17.2306 7.29564C16.6243 6.69331 16.0348 6.08541 15.4621 5.47193C14.8894 4.85845 14.2943 4.30632 13.6767 3.81553C13.0591 3.32475 12.3798 2.9232 11.6387 2.61088C10.8976 2.29856 10.0667 2.1424 9.14589 2.1424C8.18021 2.1424 7.27628 2.32087 6.43412 2.6778C5.59196 3.03474 4.85086 3.5311 4.21081 4.16689C3.57077 4.80268 3.07109 5.53885 2.71176 6.37542C2.35244 7.21198 2.16717 8.11547 2.15594 9.08589C2.15594 9.61013 2.21769 10.1511 2.34121 10.7088H0.134746C0.0786018 10.4411 0.0449153 10.1734 0.0336865 9.90572C0.0224577 9.63802 0.0112288 9.37032 0 9.10262C0 7.84219 0.235806 6.65985 0.707417 5.55558C1.17903 4.45132 1.8303 3.48648 2.66123 2.66107C3.49217 1.83566 4.46346 1.18872 5.57512 0.720242C6.68677 0.251766 7.87703 0.0119509 9.14589 0.000796728C10.0779 0.000796728 10.9088 0.106762 11.6387 0.318691C12.3686 0.530621 13.0423 0.82063 13.6599 1.18872C14.2775 1.55681 14.8726 2.00855 15.4453 2.54395C16.0179 3.07935 16.6131 3.6538 17.2306 4.26728C17.8482 3.64264 18.4377 3.0682 18.9992 2.54395C19.5606 2.01971 20.1558 1.57354 20.7846 1.20545C21.4134 0.837361 22.0927 0.541775 22.8226 0.318691C23.5525 0.0956074 24.3834 -0.0103575 25.3154 0.000796728C26.573 0.000796728 27.7577 0.235035 28.8693 0.703511C29.981 1.17199 30.9467 1.81893 31.7664 2.64434C32.5861 3.46975 33.2374 4.42901 33.7202 5.52212C34.203 6.61523 34.4445 7.792 34.4445 9.05242C34.4445 10.1344 34.2536 11.1829 33.8718 12.1979C33.49 13.2129 32.9454 14.1443 32.238 14.992H24.3217L22.6205 13.2854L17.2306 18.6562L9.68487 11.1438L5.82776 14.992Z" fill="#597CD7"/>
<path d="M1.27899 45V36.2727H2.3358V40.1591H6.98921V36.2727H8.04603V45H6.98921V41.0966H2.3358V45H1.27899ZM12.6845 45.1364C12.0936 45.1364 11.5752 44.9957 11.1291 44.7145C10.6859 44.4332 10.3394 44.0398 10.0894 43.5341C9.8422 43.0284 9.71862 42.4375 9.71862 41.7614C9.71862 41.0795 9.8422 40.4844 10.0894 39.9759C10.3394 39.4673 10.6859 39.0724 11.1291 38.7912C11.5752 38.5099 12.0936 38.3693 12.6845 38.3693C13.2754 38.3693 13.7925 38.5099 14.2357 38.7912C14.6817 39.0724 15.0283 39.4673 15.2754 39.9759C15.5254 40.4844 15.6504 41.0795 15.6504 41.7614C15.6504 42.4375 15.5254 43.0284 15.2754 43.5341C15.0283 44.0398 14.6817 44.4332 14.2357 44.7145C13.7925 44.9957 13.2754 45.1364 12.6845 45.1364ZM12.6845 44.233C13.1334 44.233 13.5027 44.1179 13.7925 43.8878C14.0823 43.6577 14.2967 43.3551 14.4359 42.9801C14.5752 42.6051 14.6448 42.1989 14.6448 41.7614C14.6448 41.3239 14.5752 40.9162 14.4359 40.5384C14.2967 40.1605 14.0823 39.8551 13.7925 39.6222C13.5027 39.3892 13.1334 39.2727 12.6845 39.2727C12.2357 39.2727 11.8663 39.3892 11.5766 39.6222C11.2868 39.8551 11.0723 40.1605 10.9331 40.5384C10.7939 40.9162 10.7243 41.3239 10.7243 41.7614C10.7243 42.1989 10.7939 42.6051 10.9331 42.9801C11.0723 43.3551 11.2868 43.6577 11.5766 43.8878C11.8663 44.1179 12.2357 44.233 12.6845 44.233ZM17.1856 45V38.4545H18.1572V39.4773H18.2424C18.3788 39.1278 18.5989 38.8565 18.9029 38.6634C19.2069 38.4673 19.572 38.3693 19.9981 38.3693C20.4299 38.3693 20.7893 38.4673 21.0762 38.6634C21.366 38.8565 21.5918 39.1278 21.7538 39.4773H21.822C21.9896 39.1392 22.241 38.8707 22.5762 38.6719C22.9114 38.4702 23.3134 38.3693 23.7822 38.3693C24.3674 38.3693 24.8461 38.5526 25.2183 38.919C25.5904 39.2827 25.7765 39.8494 25.7765 40.6193V45H24.7708V40.6193C24.7708 40.1364 24.6387 39.7912 24.3745 39.5838C24.1103 39.3764 23.7992 39.2727 23.4413 39.2727C22.981 39.2727 22.6245 39.4119 22.3717 39.6903C22.1188 39.9659 21.9924 40.3153 21.9924 40.7386V45H20.9697V40.517C20.9697 40.1449 20.8489 39.8452 20.6075 39.6179C20.366 39.3878 20.0549 39.2727 19.6742 39.2727C19.4129 39.2727 19.1685 39.3423 18.9413 39.4815C18.7168 39.6207 18.535 39.8139 18.3958 40.0611C18.2595 40.3054 18.1913 40.5881 18.1913 40.9091V45H17.1856ZM30.3596 45.1364C29.7289 45.1364 29.1849 44.9972 28.7275 44.7188C28.2729 44.4375 27.9221 44.0455 27.6749 43.5426C27.4306 43.0369 27.3085 42.4489 27.3085 41.7784C27.3085 41.108 27.4306 40.517 27.6749 40.0057C27.9221 39.4915 28.2658 39.0909 28.7062 38.804C29.1494 38.5142 29.6664 38.3693 30.2573 38.3693C30.5982 38.3693 30.9349 38.4261 31.2673 38.5398C31.5997 38.6534 31.9022 38.8381 32.1749 39.0938C32.4477 39.3466 32.665 39.6818 32.8269 40.0994C32.9889 40.517 33.0698 41.0312 33.0698 41.642V42.0682H28.0244V41.1989H32.0471C32.0471 40.8295 31.9732 40.5 31.8255 40.2102C31.6806 39.9205 31.4732 39.6918 31.2033 39.5241C30.9363 39.3565 30.621 39.2727 30.2573 39.2727C29.8568 39.2727 29.5102 39.3722 29.2176 39.571C28.9278 39.767 28.7048 40.0227 28.5485 40.3381C28.3923 40.6534 28.3141 40.9915 28.3141 41.3523V41.9318C28.3141 42.4261 28.3994 42.8452 28.5698 43.1889C28.7431 43.5298 28.9832 43.7898 29.29 43.9688C29.5968 44.1449 29.9533 44.233 30.3596 44.233C30.6238 44.233 30.8624 44.196 31.0755 44.1222C31.2914 44.0455 31.4775 43.9318 31.6337 43.7812C31.79 43.6278 31.9107 43.4375 31.996 43.2102L32.9676 43.483C32.8653 43.8125 32.6934 44.1023 32.4519 44.3523C32.2104 44.5994 31.9122 44.7926 31.557 44.9318C31.2019 45.0682 30.8028 45.1364 30.3596 45.1364Z" fill="#597CD7"/>
</svg>
