<svg width="83" height="50" viewBox="0 0 83 50" fill="none" xmlns="http://www.w3.org/2000/svg">
<path fill-rule="evenodd" clip-rule="evenodd" d="M41.5005 10.2727C39.8856 10.2727 38.3369 10.8525 37.1951 11.8846C36.0532 12.9166 35.4117 14.3164 35.4117 15.776C35.4117 17.2355 36.0532 18.6353 37.1951 19.6674C38.3369 20.6994 39.8856 21.2792 41.5005 21.2792C43.1153 21.2792 44.664 20.6994 45.8058 19.6674C46.9477 18.6353 47.5892 17.2355 47.5892 15.776C47.5892 14.3164 46.9477 12.9166 45.8058 11.8846C44.664 10.8525 43.1153 10.2727 41.5005 10.2727ZM37.8472 15.776C37.8472 14.9002 38.2321 14.0604 38.9172 13.4411C39.6023 12.8219 40.5316 12.474 41.5005 12.474C42.4694 12.474 43.3986 12.8219 44.0837 13.4411C44.7688 14.0604 45.1537 14.9002 45.1537 15.776C45.1537 16.6517 44.7688 17.4916 44.0837 18.1108C43.3986 18.73 42.4694 19.0779 41.5005 19.0779C40.5316 19.0779 39.6023 18.73 38.9172 18.1108C38.2321 17.4916 37.8472 16.6517 37.8472 15.776Z" fill="#777777"/>
<path fill-rule="evenodd" clip-rule="evenodd" d="M41.4594 0C40.7369 0 40.1345 -2.7335e-08 39.6409 0.0293507C39.1364 0.0483402 38.6388 0.142553 38.1683 0.308183C37.6264 0.510834 37.1339 0.807986 36.7191 1.18267C36.3043 1.55735 35.9752 2.00222 35.7506 2.49188C35.5152 3.00551 35.4519 3.5485 35.4259 4.13845C35.4233 4.35421 35.3601 4.56583 35.2422 4.75348C35.1244 4.94112 34.9557 5.09862 34.7521 5.21122C34.5424 5.31469 34.3071 5.36829 34.0683 5.36701C33.8294 5.36573 33.5949 5.30959 33.3866 5.20388C32.8086 4.92799 32.2565 4.70639 31.646 4.63301C31.0647 4.56389 30.4739 4.59895 29.9076 4.73618C29.3412 4.87341 28.8103 5.11013 28.3451 5.43282C27.9518 5.71881 27.6134 6.06142 27.3433 6.44688C27.0673 6.81964 26.7653 7.29072 26.4049 7.85572L26.3643 7.92029C26.0022 8.48529 25.7018 8.95637 25.4842 9.35847C25.2569 9.77819 25.0783 10.192 25.0134 10.6499C24.8585 11.7109 25.1762 12.7841 25.8967 13.6334C26.2717 14.0751 26.7604 14.3965 27.3125 14.7106C27.5183 14.8206 27.6898 14.9761 27.8108 15.1624C27.9318 15.3488 27.9983 15.56 28.0042 15.776C27.9983 15.992 27.9318 16.2032 27.8108 16.3896C27.6898 16.576 27.5183 16.7315 27.3125 16.8414C26.7604 17.1555 26.2733 17.4769 25.8967 17.9186C25.5396 18.339 25.2777 18.8189 25.1259 19.3308C24.9741 19.8427 24.9353 20.3767 25.0118 20.9021C25.0783 21.36 25.2553 21.7738 25.4826 22.1935C25.7018 22.5956 26.0022 23.0667 26.3643 23.6317L26.4049 23.6963C26.7653 24.2613 27.0673 24.7324 27.3433 25.1051C27.6307 25.4911 27.9392 25.8389 28.3451 26.1177C28.8102 26.4407 29.341 26.6777 29.9074 26.8151C30.4738 26.9526 31.0646 26.9879 31.646 26.919C32.2565 26.8456 32.8086 26.6255 33.3866 26.3481C33.5946 26.2426 33.8289 26.1865 34.0675 26.1852C34.306 26.1839 34.5411 26.2375 34.7505 26.3408C34.9552 26.4525 35.125 26.6098 35.2435 26.7975C35.362 26.9853 35.4254 27.1974 35.4275 27.4136C35.4519 28.0035 35.5152 28.5465 35.7523 29.0601C35.9765 29.5499 36.3052 29.995 36.7198 30.3699C37.1343 30.7449 37.6265 31.0423 38.1683 31.2453C38.6391 31.4214 39.1262 31.4904 39.6409 31.5212C40.1345 31.552 40.7369 31.552 41.4594 31.552H41.5406C42.2631 31.552 42.8655 31.552 43.3591 31.5227C43.8754 31.4904 44.3609 31.4214 44.8317 31.2438C45.3736 31.0412 45.8661 30.744 46.2809 30.3694C46.6957 29.9947 47.0248 29.5498 47.2494 29.0601C47.4848 28.5465 47.5481 28.0035 47.5741 27.4136C47.5764 27.1976 47.6395 26.9856 47.7574 26.7977C47.8752 26.6098 48.044 26.4521 48.2479 26.3393C48.4577 26.2361 48.6931 26.1827 48.9319 26.1843C49.1708 26.1858 49.4053 26.2422 49.6134 26.3481C50.1914 26.624 50.7435 26.8456 51.354 26.9175C52.5279 27.0575 53.7152 26.7704 54.6549 26.1192C55.0608 25.8374 55.3693 25.4911 55.6567 25.1051C55.9327 24.7324 56.2347 24.2613 56.5951 23.6963L56.6357 23.6317C56.9978 23.0667 57.2982 22.5956 57.5157 22.1935C57.7431 21.7738 57.9217 21.3585 57.9866 20.9021C58.1415 19.8411 57.8238 18.7679 57.1033 17.9186C56.7283 17.4769 56.2396 17.1555 55.6875 16.8414C55.4817 16.7315 55.3102 16.576 55.1892 16.3896C55.0682 16.2032 55.0017 15.992 54.9958 15.776C54.9958 15.368 55.2426 14.963 55.6875 14.7106C56.2396 14.3965 56.7267 14.0751 57.1033 13.6334C57.4604 13.213 57.7223 12.7331 57.8741 12.2212C58.0259 11.7093 58.0647 11.1754 57.9882 10.6499C57.911 10.1989 57.7519 9.76261 57.5174 9.35847C57.2402 8.87088 56.9461 8.39125 56.6357 7.92029L56.5951 7.85572C56.2985 7.37743 55.9856 6.90759 55.6567 6.44688C55.3866 6.06183 55.0482 5.7197 54.6549 5.43428C54.1898 5.11134 53.659 4.87436 53.0926 4.73688C52.5262 4.59939 51.9354 4.5641 51.354 4.63301C50.7435 4.70639 50.1914 4.92652 49.6134 5.20388C49.4053 5.30933 49.1711 5.36532 48.9325 5.3666C48.694 5.36789 48.459 5.31442 48.2495 5.21122C48.0453 5.09898 47.876 4.94163 47.7575 4.75396C47.6391 4.5663 47.5754 4.35449 47.5725 4.13845C47.5481 3.5485 47.4848 3.00551 47.2477 2.49188C47.0235 2.00209 46.6948 1.55701 46.2802 1.18208C45.8657 0.807146 45.3735 0.509695 44.8317 0.306715C44.3609 0.130611 43.8738 0.0616365 43.3591 0.0308183C42.8655 4.10025e-08 42.2631 0 41.5406 0H41.4594ZM39.1002 2.34072C39.2253 2.29376 39.4152 2.2512 39.8065 2.22625C40.2076 2.2013 40.7271 2.2013 41.5 2.2013C42.2729 2.2013 42.7924 2.2013 43.1935 2.22625C43.5848 2.2512 43.7747 2.29376 43.8998 2.34072C44.3982 2.5271 44.7928 2.88371 44.999 3.33424C45.0639 3.47512 45.1175 3.69672 45.1386 4.22063C45.1873 5.38292 45.8514 6.50265 47.0302 7.11755C48.2089 7.73391 49.6134 7.69282 50.7516 7.14983C51.2647 6.90476 51.5033 6.83578 51.6722 6.8167C52.2057 6.75299 52.7453 6.88337 53.1725 7.17918C53.2796 7.25403 53.416 7.3817 53.6352 7.67521C53.8609 7.97752 54.1207 8.38403 54.5071 8.98866C54.8935 9.59328 55.1517 10.0013 55.3287 10.327C55.5024 10.6455 55.556 10.8157 55.5722 10.9375C55.6427 11.4197 55.4985 11.9075 55.1712 12.2935C55.0673 12.4154 54.8822 12.568 54.3918 12.8468C53.3007 13.4661 52.5603 14.5462 52.5603 15.776C52.5603 17.0058 53.3007 18.0859 54.3918 18.7052C54.8822 18.984 55.0673 19.1367 55.1712 19.2585C55.4992 19.6444 55.642 20.1317 55.5722 20.6145C55.556 20.7363 55.5008 20.908 55.3287 21.225C55.1517 21.5522 54.8935 21.9587 54.5071 22.5634C54.1207 23.168 53.8593 23.5745 53.6352 23.8768C53.416 24.1703 53.2796 24.298 53.1725 24.3728C52.7453 24.6686 52.2057 24.799 51.6722 24.7353C51.5033 24.7162 51.2663 24.6473 50.7516 24.4022C49.615 23.8592 48.2089 23.8181 47.0302 24.433C45.8514 25.0494 45.1873 26.1691 45.1386 27.3314C45.1175 27.8553 45.0639 28.0769 44.999 28.2178C44.897 28.4405 44.7474 28.643 44.5588 28.8134C44.3702 28.9839 44.1462 29.1191 43.8998 29.2113C43.7747 29.2583 43.5848 29.3008 43.1935 29.3258C42.7924 29.3507 42.2729 29.3507 41.5 29.3507C40.7271 29.3507 40.2076 29.3507 39.8065 29.3258C39.4152 29.3008 39.2253 29.2583 39.1002 29.2113C38.8538 29.1191 38.6298 28.9839 38.4412 28.8134C38.2526 28.643 38.103 28.4405 38.001 28.2178C37.9361 28.0769 37.8825 27.8553 37.8614 27.3314C37.8127 26.1691 37.1486 25.0494 35.9698 24.4345C34.791 23.8181 33.3866 23.8592 32.2484 24.4022C31.7353 24.6473 31.4967 24.7162 31.3278 24.7353C30.7943 24.799 30.2547 24.6686 29.8275 24.3728C29.7204 24.298 29.584 24.1703 29.3648 23.8768C29.0594 23.4471 28.7686 23.0091 28.4929 22.5634C28.1065 21.9587 27.8483 21.5508 27.6713 21.225C27.4976 20.9065 27.444 20.7363 27.4278 20.6145C27.3573 20.1323 27.5015 19.6445 27.8288 19.2585C27.9327 19.1367 28.1178 18.984 28.6082 18.7052C29.6993 18.0859 30.4397 17.0058 30.4397 15.776C30.4397 14.5462 29.6993 13.4661 28.6082 12.8468C28.1178 12.568 27.9327 12.4154 27.8288 12.2935C27.5015 11.9075 27.3573 11.4197 27.4278 10.9375C27.444 10.8157 27.4992 10.644 27.6713 10.327C27.8483 9.99979 28.1065 9.59328 28.4929 8.98866C28.8793 8.38403 29.1407 7.97752 29.3648 7.67521C29.584 7.3817 29.7204 7.25403 29.8275 7.17918C30.2547 6.88337 30.7943 6.75299 31.3278 6.8167C31.4967 6.83578 31.7337 6.90476 32.2484 7.14983C33.385 7.69282 34.791 7.73391 35.9698 7.11755C37.1486 6.50265 37.8127 5.38292 37.8614 4.22063C37.8825 3.69672 37.9361 3.47512 38.001 3.33424C38.2072 2.88371 38.6018 2.5271 39.1002 2.34072Z" fill="#777777"/>
<path d="M8.07955 40.552H7.02273C6.96023 40.248 6.85085 39.981 6.6946 39.7509C6.54119 39.5208 6.35369 39.3276 6.1321 39.1713C5.91335 39.0122 5.67045 38.8929 5.40341 38.8134C5.13636 38.7338 4.85795 38.694 4.56818 38.694C4.03977 38.694 3.56108 38.8276 3.1321 39.0946C2.70597 39.3617 2.36648 39.7551 2.11364 40.275C1.86364 40.7949 1.73864 41.4327 1.73864 42.1884C1.73864 42.944 1.86364 43.5818 2.11364 44.1017C2.36648 44.6216 2.70597 45.0151 3.1321 45.2821C3.56108 45.5492 4.03977 45.6827 4.56818 45.6827C4.85795 45.6827 5.13636 45.6429 5.40341 45.5634C5.67045 45.4838 5.91335 45.3659 6.1321 45.2097C6.35369 45.0506 6.54119 44.856 6.6946 44.6259C6.85085 44.3929 6.96023 44.1259 7.02273 43.8247H8.07955C8 44.2708 7.85511 44.6699 7.64489 45.0222C7.43466 45.3744 7.1733 45.6742 6.8608 45.9213C6.5483 46.1656 6.19744 46.3517 5.80824 46.4796C5.42188 46.6074 5.00852 46.6713 4.56818 46.6713C3.82386 46.6713 3.16193 46.4895 2.58239 46.1259C2.00284 45.7622 1.54688 45.2452 1.21449 44.5747C0.882102 43.9043 0.715909 43.1088 0.715909 42.1884C0.715909 41.2679 0.882102 40.4725 1.21449 39.802C1.54688 39.1315 2.00284 38.6145 2.58239 38.2509C3.16193 37.8872 3.82386 37.7054 4.56818 37.7054C5.00852 37.7054 5.42188 37.7693 5.80824 37.8972C6.19744 38.025 6.5483 38.2125 6.8608 38.4597C7.1733 38.704 7.43466 39.0023 7.64489 39.3546C7.85511 39.704 8 40.1031 8.07955 40.552ZM12.31 46.6884C11.7191 46.6884 11.2006 46.5477 10.7546 46.2665C10.3114 45.9852 9.96484 45.5918 9.71484 45.0861C9.46768 44.5804 9.34411 43.9895 9.34411 43.3134C9.34411 42.6315 9.46768 42.0364 9.71484 41.5279C9.96484 41.0193 10.3114 40.6244 10.7546 40.3432C11.2006 40.0619 11.7191 39.9213 12.31 39.9213C12.9009 39.9213 13.418 40.0619 13.8612 40.3432C14.3072 40.6244 14.6538 41.0193 14.9009 41.5279C15.1509 42.0364 15.2759 42.6315 15.2759 43.3134C15.2759 43.9895 15.1509 44.5804 14.9009 45.0861C14.6538 45.5918 14.3072 45.9852 13.8612 46.2665C13.418 46.5477 12.9009 46.6884 12.31 46.6884ZM12.31 45.785C12.7589 45.785 13.1282 45.6699 13.418 45.4398C13.7077 45.2097 13.9222 44.9071 14.0614 44.5321C14.2006 44.1571 14.2702 43.7509 14.2702 43.3134C14.2702 42.8759 14.2006 42.4682 14.0614 42.0904C13.9222 41.7125 13.7077 41.4071 13.418 41.1742C13.1282 40.9412 12.7589 40.8247 12.31 40.8247C11.8612 40.8247 11.4918 40.9412 11.2021 41.1742C10.9123 41.4071 10.6978 41.7125 10.5586 42.0904C10.4194 42.4682 10.3498 42.8759 10.3498 43.3134C10.3498 43.7509 10.4194 44.1571 10.5586 44.5321C10.6978 44.9071 10.9123 45.2097 11.2021 45.4398C11.4918 45.6699 11.8612 45.785 12.31 45.785ZM17.8168 42.6145V46.552H16.8111V40.0065H17.7827V41.0293H17.8679C18.0213 40.6969 18.2543 40.4298 18.5668 40.2281C18.8793 40.0236 19.2827 39.9213 19.777 39.9213C20.2202 39.9213 20.608 40.0122 20.9403 40.194C21.2727 40.373 21.5313 40.6458 21.7159 41.0122C21.9006 41.3759 21.9929 41.8361 21.9929 42.3929V46.552H20.9872V42.4611C20.9872 41.9469 20.8537 41.5463 20.5866 41.2594C20.3196 40.9696 19.9531 40.8247 19.4872 40.8247C19.1662 40.8247 18.8793 40.8943 18.6264 41.0335C18.3764 41.1727 18.179 41.3759 18.0341 41.6429C17.8892 41.91 17.8168 42.2338 17.8168 42.6145ZM26.7454 40.0065V40.8588H23.217V40.0065H26.7454ZM24.2738 46.552V39.1031C24.2738 38.7281 24.3619 38.4156 24.538 38.1656C24.7141 37.9156 24.9428 37.7281 25.2241 37.6031C25.5053 37.4781 25.8022 37.4156 26.1147 37.4156C26.3619 37.4156 26.5636 37.4355 26.7198 37.4753C26.8761 37.5151 26.9925 37.552 27.0692 37.5861L26.7795 38.4554C26.7283 38.4384 26.6573 38.4171 26.5664 38.3915C26.4783 38.3659 26.3619 38.3531 26.217 38.3531C25.8846 38.3531 25.6445 38.4369 25.4968 38.6046C25.3519 38.7722 25.2795 39.0179 25.2795 39.3418V46.552H24.2738ZM28.1548 46.552V40.0065H29.1605V46.552H28.1548ZM28.6662 38.9156C28.4702 38.9156 28.3011 38.8489 28.1591 38.7154C28.0199 38.5818 27.9503 38.4213 27.9503 38.2338C27.9503 38.0463 28.0199 37.8858 28.1591 37.7523C28.3011 37.6188 28.4702 37.552 28.6662 37.552C28.8622 37.552 29.0298 37.6188 29.169 37.7523C29.3111 37.8858 29.3821 38.0463 29.3821 38.2338C29.3821 38.4213 29.3111 38.5818 29.169 38.7154C29.0298 38.8489 28.8622 38.9156 28.6662 38.9156ZM33.6445 49.1429C33.1587 49.1429 32.7411 49.0804 32.3917 48.9554C32.0423 48.8333 31.7511 48.6713 31.5181 48.4696C31.288 48.2708 31.1048 48.0577 30.9684 47.8304L31.7695 47.2679C31.8604 47.3872 31.9755 47.5236 32.1147 47.677C32.2539 47.8333 32.4442 47.9682 32.6857 48.0818C32.93 48.1983 33.2496 48.2565 33.6445 48.2565C34.1729 48.2565 34.609 48.1287 34.9528 47.873C35.2965 47.6173 35.4684 47.2168 35.4684 46.6713V45.3418H35.3832C35.3093 45.4611 35.2042 45.6088 35.0678 45.785C34.9343 45.9583 34.7411 46.1131 34.4883 46.2494C34.2383 46.383 33.9002 46.4497 33.4741 46.4497C32.9457 46.4497 32.4712 46.3247 32.0508 46.0747C31.6332 45.8247 31.3022 45.4611 31.0579 44.9838C30.8164 44.5065 30.6957 43.927 30.6957 43.2452C30.6957 42.5747 30.8136 41.9909 31.0494 41.4938C31.2852 40.9938 31.6133 40.6074 32.0337 40.3347C32.4542 40.0591 32.94 39.9213 33.4911 39.9213C33.9173 39.9213 34.2553 39.9923 34.5053 40.1344C34.7582 40.2736 34.9513 40.4327 35.0849 40.6117C35.2212 40.7878 35.3263 40.9327 35.4002 41.0463H35.5025V40.0065H36.4741V46.7395C36.4741 47.302 36.3462 47.7594 36.0906 48.1117C35.8377 48.4668 35.4968 48.7267 35.0678 48.8915C34.6417 49.0591 34.1673 49.1429 33.6445 49.1429ZM33.6104 45.5463C34.0138 45.5463 34.3548 45.454 34.6332 45.2693C34.9116 45.0847 35.1232 44.819 35.2681 44.4725C35.413 44.1259 35.4854 43.7111 35.4854 43.2281C35.4854 42.7565 35.4144 42.3404 35.2724 41.9796C35.1303 41.6188 34.9201 41.3361 34.6417 41.1315C34.3633 40.927 34.0195 40.8247 33.6104 40.8247C33.1843 40.8247 32.8292 40.9327 32.5451 41.1486C32.2638 41.3645 32.0522 41.6543 31.9102 42.0179C31.771 42.3815 31.7013 42.785 31.7013 43.2281C31.7013 43.6827 31.7724 44.0847 31.9144 44.4341C32.0593 44.7807 32.2724 45.0534 32.5536 45.2523C32.8377 45.4483 33.19 45.5463 33.6104 45.5463ZM42.44 43.8759V40.0065H43.4457V46.552H42.44V45.444H42.3718C42.2184 45.7764 41.9798 46.0591 41.6559 46.2921C41.332 46.5222 40.9229 46.6372 40.4286 46.6372C40.0195 46.6372 39.6559 46.5477 39.3377 46.3688C39.0195 46.1869 38.7695 45.9142 38.5877 45.5506C38.4059 45.1841 38.315 44.7225 38.315 44.1656V40.0065H39.3207V44.0975C39.3207 44.5747 39.4542 44.9554 39.7212 45.2395C39.9911 45.5236 40.3349 45.6656 40.7525 45.6656C41.0025 45.6656 41.2567 45.6017 41.5153 45.4739C41.7766 45.346 41.9954 45.15 42.1715 44.8858C42.3505 44.6216 42.44 44.285 42.44 43.8759ZM45.2876 46.552V40.0065H46.2592V40.9952H46.3274C46.4467 40.6713 46.6626 40.4085 46.9751 40.2068C47.2876 40.0051 47.6399 39.9043 48.032 39.9043C48.1058 39.9043 48.1982 39.9057 48.3089 39.9085C48.4197 39.9114 48.5036 39.9156 48.5604 39.9213V40.944C48.5263 40.9355 48.4482 40.9227 48.326 40.9057C48.2067 40.8858 48.0803 40.8759 47.9467 40.8759C47.6286 40.8759 47.3445 40.9426 47.0945 41.0761C46.8473 41.2068 46.6513 41.3886 46.5064 41.6216C46.3643 41.8517 46.2933 42.1145 46.2933 42.41V46.552H45.2876ZM51.6786 46.7054C51.2638 46.7054 50.8874 46.6273 50.5494 46.471C50.2113 46.3119 49.9428 46.0833 49.744 45.785C49.5451 45.4838 49.4457 45.1202 49.4457 44.694C49.4457 44.319 49.5195 44.0151 49.6673 43.7821C49.815 43.5463 50.0124 43.3617 50.2596 43.2281C50.5067 43.0946 50.7795 42.9952 51.0778 42.9298C51.3789 42.8617 51.6815 42.8077 51.9854 42.7679C52.3832 42.7168 52.7056 42.6784 52.9528 42.6529C53.2028 42.6244 53.3846 42.5776 53.4982 42.5122C53.6147 42.4469 53.6729 42.3333 53.6729 42.1713V42.1372C53.6729 41.7168 53.5579 41.3901 53.3278 41.1571C53.1005 40.9242 52.7553 40.8077 52.2923 40.8077C51.8121 40.8077 51.4357 40.9128 51.163 41.123C50.8903 41.3333 50.6985 41.5577 50.5877 41.7963L49.6332 41.4554C49.8036 41.0577 50.0309 40.748 50.315 40.5264C50.6019 40.302 50.9144 40.1458 51.2525 40.0577C51.5934 39.9668 51.9286 39.9213 52.2582 39.9213C52.4684 39.9213 52.7099 39.9469 52.9826 39.998C53.2582 40.0463 53.5238 40.1472 53.7795 40.3006C54.038 40.454 54.2525 40.6855 54.4229 40.9952C54.5934 41.3048 54.6786 41.7196 54.6786 42.2395V46.552H53.6729V45.6656H53.6218C53.5536 45.8077 53.44 45.9597 53.2809 46.1216C53.1218 46.2835 52.9102 46.4213 52.646 46.535C52.3817 46.6486 52.0593 46.7054 51.6786 46.7054ZM51.832 45.802C52.2298 45.802 52.565 45.7239 52.8377 45.5676C53.1133 45.4114 53.3207 45.2097 53.4599 44.9625C53.6019 44.7154 53.6729 44.4554 53.6729 44.1827V43.2622C53.6303 43.3134 53.5366 43.3602 53.3917 43.4029C53.2496 43.4426 53.0849 43.4781 52.8974 43.5094C52.7127 43.5378 52.5323 43.5634 52.3562 43.5861C52.1829 43.606 52.0423 43.623 51.9343 43.6372C51.6729 43.6713 51.4286 43.7267 51.2013 43.8034C50.9769 43.8773 50.7951 43.9895 50.6559 44.1401C50.5195 44.2878 50.4513 44.4895 50.4513 44.7452C50.4513 45.0946 50.5806 45.3588 50.8391 45.5378C51.1005 45.7139 51.4315 45.802 51.832 45.802ZM59.1733 46.6884C58.5597 46.6884 58.0313 46.5435 57.5881 46.2537C57.1449 45.9639 56.804 45.5648 56.5653 45.0563C56.3267 44.5477 56.2074 43.9668 56.2074 43.3134C56.2074 42.6486 56.3295 42.0619 56.5739 41.5534C56.821 41.0421 57.1648 40.6429 57.6051 40.356C58.0483 40.0662 58.5653 39.9213 59.1562 39.9213C59.6165 39.9213 60.0312 40.0065 60.4006 40.177C60.7699 40.3475 61.0724 40.5861 61.3082 40.8929C61.544 41.1997 61.6903 41.5577 61.7472 41.9668H60.7415C60.6648 41.6685 60.4943 41.4043 60.2301 41.1742C59.9688 40.9412 59.6165 40.8247 59.1733 40.8247C58.7813 40.8247 58.4375 40.927 58.142 41.1315C57.8494 41.3333 57.6207 41.6188 57.456 41.9881C57.294 42.3546 57.2131 42.785 57.2131 43.2793C57.2131 43.785 57.2926 44.2253 57.4517 44.6003C57.6136 44.9753 57.8409 45.2665 58.1335 45.4739C58.429 45.6813 58.7756 45.785 59.1733 45.785C59.4347 45.785 59.6719 45.7395 59.8849 45.6486C60.098 45.5577 60.2784 45.427 60.4261 45.2565C60.5739 45.0861 60.679 44.8815 60.7415 44.6429H61.7472C61.6903 45.0293 61.5497 45.3773 61.3253 45.6869C61.1037 45.9938 60.8097 46.2381 60.4432 46.4199C60.0795 46.5989 59.6563 46.6884 59.1733 46.6884ZM58.696 46.5179H59.5312L59.4631 46.8588C59.6847 46.8929 59.8878 46.9852 60.0724 47.1358C60.2571 47.2892 60.3494 47.5321 60.3494 47.8645C60.3494 48.231 60.1974 48.5293 59.8935 48.7594C59.5923 48.9923 59.1477 49.1088 58.5597 49.1088L58.5256 48.444C58.7898 48.444 59.0085 48.4014 59.1818 48.3162C59.358 48.2338 59.446 48.0946 59.446 47.8986C59.446 47.7026 59.3736 47.569 59.2287 47.498C59.0838 47.427 58.8494 47.3787 58.5256 47.3531L58.696 46.5179ZM65.8764 46.6884C65.2855 46.6884 64.767 46.5477 64.321 46.2665C63.8778 45.9852 63.5312 45.5918 63.2812 45.0861C63.0341 44.5804 62.9105 43.9895 62.9105 43.3134C62.9105 42.6315 63.0341 42.0364 63.2812 41.5279C63.5312 41.0193 63.8778 40.6244 64.321 40.3432C64.767 40.0619 65.2855 39.9213 65.8764 39.9213C66.4673 39.9213 66.9844 40.0619 67.4276 40.3432C67.8736 40.6244 68.2202 41.0193 68.4673 41.5279C68.7173 42.0364 68.8423 42.6315 68.8423 43.3134C68.8423 43.9895 68.7173 44.5804 68.4673 45.0861C68.2202 45.5918 67.8736 45.9852 67.4276 46.2665C66.9844 46.5477 66.4673 46.6884 65.8764 46.6884ZM65.8764 45.785C66.3253 45.785 66.6946 45.6699 66.9844 45.4398C67.2741 45.2097 67.4886 44.9071 67.6278 44.5321C67.767 44.1571 67.8366 43.7509 67.8366 43.3134C67.8366 42.8759 67.767 42.4682 67.6278 42.0904C67.4886 41.7125 67.2741 41.4071 66.9844 41.1742C66.6946 40.9412 66.3253 40.8247 65.8764 40.8247C65.4276 40.8247 65.0582 40.9412 64.7685 41.1742C64.4787 41.4071 64.2642 41.7125 64.125 42.0904C63.9858 42.4682 63.9162 42.8759 63.9162 43.3134C63.9162 43.7509 63.9858 44.1571 64.125 44.5321C64.2642 44.9071 64.4787 45.2097 64.7685 45.4398C65.0582 45.6699 65.4276 45.785 65.8764 45.785ZM64.5639 39.2225L63.7798 39.1884C63.7798 38.7537 63.9034 38.3986 64.1506 38.123C64.4006 37.8446 64.7088 37.7054 65.0753 37.7054C65.2372 37.7054 65.3807 37.7338 65.5057 37.7906C65.6307 37.8446 65.75 37.9071 65.8636 37.9781C65.9773 38.0492 66.0938 38.1131 66.2131 38.1699C66.3352 38.2239 66.473 38.2509 66.6264 38.2509C66.7884 38.2509 66.9247 38.1884 67.0355 38.0634C67.1491 37.9355 67.206 37.7821 67.206 37.6031L67.973 37.6713C67.973 38.1145 67.848 38.4668 67.598 38.7281C67.3509 38.9895 67.044 39.1202 66.6776 39.1202C66.4815 39.1202 66.3196 39.0932 66.1918 39.0392C66.0639 38.9824 65.9503 38.9185 65.8509 38.8475C65.7514 38.7764 65.6463 38.7139 65.5355 38.66C65.4247 38.6031 65.2884 38.5747 65.1264 38.5747C64.9645 38.5747 64.8295 38.6386 64.7216 38.7665C64.6165 38.8915 64.5639 39.0435 64.5639 39.2225ZM73.1218 46.6884C72.4911 46.6884 71.9471 46.5492 71.4897 46.2708C71.0352 45.9895 70.6843 45.5975 70.4371 45.0946C70.1928 44.5889 70.0707 44.0009 70.0707 43.3304C70.0707 42.66 70.1928 42.069 70.4371 41.5577C70.6843 41.0435 71.0281 40.6429 71.4684 40.356C71.9116 40.0662 72.4286 39.9213 73.0195 39.9213C73.3604 39.9213 73.6971 39.9781 74.0295 40.0918C74.3619 40.2054 74.6644 40.3901 74.9371 40.6458C75.2099 40.8986 75.4272 41.2338 75.5891 41.6514C75.7511 42.069 75.832 42.5833 75.832 43.194V43.6202H70.7866V42.7509H74.8093C74.8093 42.3815 74.7354 42.052 74.5877 41.7622C74.4428 41.4725 74.2354 41.2438 73.9656 41.0761C73.6985 40.9085 73.3832 40.8247 73.0195 40.8247C72.619 40.8247 72.2724 40.9242 71.9798 41.123C71.69 41.319 71.467 41.5747 71.3107 41.8901C71.1545 42.2054 71.0763 42.5435 71.0763 42.9043V43.4838C71.0763 43.9781 71.1616 44.3972 71.332 44.7409C71.5053 45.0818 71.7454 45.3418 72.0522 45.5208C72.359 45.6969 72.7156 45.785 73.1218 45.785C73.386 45.785 73.6246 45.748 73.8377 45.6742C74.0536 45.5975 74.2397 45.4838 74.396 45.3333C74.5522 45.1798 74.6729 44.9895 74.7582 44.7622L75.7298 45.035C75.6275 45.3645 75.4556 45.6543 75.2141 45.9043C74.9727 46.1514 74.6744 46.3446 74.3192 46.4838C73.9641 46.6202 73.565 46.6884 73.1218 46.6884ZM81.9982 41.4725L81.0948 41.7281C81.038 41.5776 80.9542 41.4313 80.8434 41.2892C80.7354 41.1443 80.5877 41.025 80.4002 40.9313C80.2127 40.8375 79.9727 40.7906 79.68 40.7906C79.2795 40.7906 78.9457 40.883 78.6786 41.0676C78.4144 41.2494 78.2823 41.481 78.2823 41.7622C78.2823 42.0122 78.3732 42.2097 78.555 42.3546C78.7369 42.4994 79.021 42.6202 79.4073 42.7168L80.3789 42.9554C80.9641 43.0975 81.4002 43.3148 81.6871 43.6074C81.9741 43.8972 82.1175 44.2708 82.1175 44.7281C82.1175 45.1031 82.0096 45.4384 81.7937 45.7338C81.5806 46.0293 81.2823 46.2622 80.8988 46.4327C80.5153 46.6031 80.0692 46.6884 79.5607 46.6884C78.8931 46.6884 78.3406 46.5435 77.9031 46.2537C77.4656 45.9639 77.1886 45.5406 77.0721 44.9838L78.0266 44.7452C78.1175 45.0975 78.2894 45.3617 78.5423 45.5378C78.7979 45.7139 79.1317 45.802 79.5437 45.802C80.0124 45.802 80.3846 45.7026 80.6602 45.5037C80.9386 45.302 81.0778 45.0605 81.0778 44.7793C81.0778 44.552 80.9982 44.3617 80.8391 44.2083C80.68 44.052 80.4357 43.9355 80.1062 43.8588L79.0153 43.6031C78.4158 43.4611 77.9755 43.2409 77.6942 42.9426C77.4158 42.6415 77.2766 42.2651 77.2766 41.8134C77.2766 41.444 77.3803 41.1173 77.5877 40.8333C77.7979 40.5492 78.0835 40.3261 78.4442 40.1642C78.8079 40.0023 79.2198 39.9213 79.68 39.9213C80.3278 39.9213 80.8363 40.0634 81.2056 40.3475C81.5778 40.6315 81.842 41.0065 81.9982 41.4725Z" fill="#777777"/>
</svg>
