<svg width="33" height="38" viewBox="0 0 33 38" fill="none" xmlns="http://www.w3.org/2000/svg">
<path d="M6.54698 27.0992C5.52919 27.248 3.85377 27.5251 2.7392 26.2632C1.62463 25.0012 0.66079 21.954 0.237175 19.2306C-0.387934 15.2167 0.232416 11.8338 1.98241 9.70576C3.01368 8.45251 4.36702 7.72653 5.89648 7.61095C7.2062 7.5104 9.16323 8.02183 11.0528 11.0303C12.2364 12.9153 13.1368 15.4194 13.5231 17.8998C13.9896 20.8939 14.4441 24.0892 12.8536 25.2348C11.9564 25.8816 11.3122 26.1056 9.78993 26.4674C8.53813 26.7643 7.56556 26.9496 6.54698 27.0992ZM4.7367 29.6746L13.3748 27.8964C14.1046 27.746 14.6901 28.1466 14.9614 29.3468C15.8514 33.2863 14.5758 38 10.5808 38C6.79765 38 4.27659 33.6964 3.86487 31.383C3.67687 30.3341 3.945 29.8369 4.7367 29.6746ZM23.21 18.868C21.6876 18.5078 21.0435 18.2821 20.1463 17.6353C18.5557 16.4898 19.0103 13.2945 19.4768 10.3003C19.8631 7.81995 20.7635 5.31267 21.947 3.43082C23.8351 0.422391 25.7921 -0.0890411 27.1034 0.0115036C28.6313 0.127882 29.9854 0.85228 31.0167 2.10553C32.7683 4.23359 33.3886 7.61649 32.7619 11.6304C32.3375 14.3538 31.3768 17.3907 30.2559 18.663C29.135 19.9352 27.4691 19.6478 26.4482 19.499C25.4272 19.3501 24.461 19.1641 23.21 18.868ZM28.2624 22.0743L19.6243 20.2962C18.8945 20.1458 18.309 20.5464 18.0377 21.7466C17.1485 25.686 18.4241 30.3998 22.4191 30.3998C26.2022 30.3998 28.7233 26.0961 29.135 23.7828C29.3222 22.7338 29.0541 22.2366 28.2624 22.0743Z" fill="#E0A1A1"/>
</svg>
